PathFileType	4	(x/y/z)	S01_P20_T24
DataRate	CameraRate	NumFrames	NumMarkers	Units	OrigDataRate	OrigDataStartFrame	OrigNumFrames
240	240	5	51	mm	240	151	400
Frame#	Time	Sternum			R.Acromium			L.Acromium			Top.Head			R.ASIS			L.ASIS			R.PSIS			L.PSIS			R.Great.Tro			L.Great.Tro			R.Iliac.Crest			L.Iliac.Crest			V.Sacral			R.Thigh.Upper.Post			R.Thigh.Lower.Ant			R.Thigh.Lower.Post			R.Thigh.Upper.Ant			R.Knee.Lat			R.Knee.Med			R.Shank.Upper.Post			R.Shank.Lower.Ant			R.Shank.Lower.Post			R.Shank.Upper.Ant			R.Ankle.Lat			R.Ankle.Med			R.Heel.Upper			R.Heel.Med			R.Heel.Lat			R.Toe.Lat			R.Toe.Med			R.Toe.Tip			L.Thigh.Upper.Post			L.Thigh.Lower.Ant			L.Thigh.Lower.Post			L.Thigh.Upper.Ant			L.Knee.Lat			L.Knee.Med			L.Shank.Upper.Post			L.Shank.Lower.Ant			L.Shank.Lower.Post			L.Shank.Upper.Ant			L.Ankle.Lat			L.Ankle.Med			L.Heel.Upper			L.Heel.Med			L.Heel.Lat			L.Toe.Lat			L.Toe.Med			L.Toe.Tip			Cervical.Spine			Back			
		X1	Y1	Z1	X2	Y2	Z2	X3	Y3	Z3	X4	Y4	Z4	X5	Y5	Z5	X6	Y6	Z6	X7	Y7	Z7	X8	Y8	Z8	X9	Y9	Z9	X10	Y10	Z10	X11	Y11	Z11	X12	Y12	Z12	X13	Y13	Z13	X14	Y14	Z14	X15	Y15	Z15	X16	Y16	Z16	X17	Y17	Z17	X18	Y18	Z18	X19	Y19	Z19	X20	Y20	Z20	X21	Y21	Z21	X22	Y22	Z22	X23	Y23	Z23	X24	Y24	Z24	X25	Y25	Z25	X26	Y26	Z26	X27	Y27	Z27	X28	Y28	Z28	X29	Y29	Z29	X30	Y30	Z30	X31	Y31	Z31	X32	Y32	Z32	X33	Y33	Z33	X34	Y34	Z34	X35	Y35	Z35	X36	Y36	Z36	X37	Y37	Z37	X38	Y38	Z38	X39	Y39	Z39	X40	Y40	Z40	X41	Y41	Z41	X42	Y42	Z42	X43	Y43	Z43	X44	Y44	Z44	X45	Y45	Z45	X46	Y46	Z46	X47	Y47	Z47	X48	Y48	Z48	X49	Y49	Z49	X50	Y50	Z50	X51	Y51	Z51	

151	0.625	-478.27	1247.7	303.32	-593.87	1496	493.25	-634.55	1516.1	162.35	-578.96	1825	325.94	-515.11	1000.9	451.46	-525.03	989.56	184.31	-758.81	1037.2	370.28	-766.36	1032.5	267.82	-580.16	953.43	537.33	-640	936.1	112.3	-602.03	1094.1	523.6	-639.22	1073.8	117.91	-775.01	998.04	319.35	-493.64	655.33	503.31	-405.44	611.89	469.01	-463.07	574.11	477.07	-432.77	694.87	496.07	-421.52	522.22	466.23	-428.07	530.12	324.81	-482.59	366.5	486.85	-434.5	280.36	436.37	-494.36	297.29	474.83	-425.19	350.94	456.3	-525.3	101.96	432.12	-495.47	105.68	337.99	-596.56	71.776	373.34	-580.66	42.033	344.85	-587.41	41.57	409.19	-397.68	36.378	470.94	-362.47	39.538	346.27	-301.14	57.529	403.08	-673.85	656.67	125.77	-592.28	587.11	93.303	-658.79	566.27	132.62	-612.86	680.61	92.185	-620.18	489.81	98.036	-556.39	468.85	234.29	-744.67	440.25	94.23	-774.97	335.05	115.04	-806.03	391.33	104.61	-715.44	382.52	101.87	-976.99	272.05	152.71	-939.14	249.82	242.97	-1034.9	310.02	212.41	-1044.7	286.47	246.9	-1057.6	290.52	186.53	-966.36	112.73	122.12	-923.96	90.671	237.33	-888.12	49.349	176.13	-698.03	1563	337.37	-780.94	1248.7	347.14
152	0.62917	-472.98	1248.9	303.32	-588.09	1497	493.71	-629.46	1517.5	162.93	-573.38	1826.1	326.97	-509.58	1001.8	451.53	-519.9	990.85	184.31	-753.39	1038.4	370.73	-761.06	1033.6	268.27	-574.75	954.36	537.45	-634.77	937.29	112.46	-596.52	1095.2	523.94	-634.54	1074.9	118.15	-769.67	999.19	319.86	-490.31	655.58	503.51	-402.48	611.49	469.14	-460.38	574.13	477.3	-429.16	694.68	496.2	-419.38	521.83	466.46	-425.94	529.76	325.08	-481.35	366.38	487.05	-433.64	280.05	436.56	-493.43	297.22	475	-424.01	350.59	456.53	-525.25	101.98	432.19	-495.51	105.77	338.06	-596.57	71.81	373.4	-580.66	42.095	344.9	-587.41	41.569	409.24	-397.68	36.372	471.01	-362.49	39.63	346.31	-301.17	57.556	403.15	-664.69	657.23	125.78	-582.61	588.55	92.99	-648.64	567.06	132.79	-604.09	681.8	91.945	-609.25	491.4	97.796	-545.29	470.71	234.37	-733.55	442.58	94.428	-764.4	337.52	115.14	-795.09	393.9	104.88	-704.56	384.71	101.93	-966.55	275.8	153.36	-928.41	252.91	243.4	-1024	313.73	213.5	-1033.8	290.05	247.92	-1047	294.53	187.59	-956.86	116.5	121.78	-913.88	93.352	236.56	-878.78	51.781	174.95	-692.5	1564.2	338.1	-775.4	1249.9	347.74
153	0.63333	-467.7	1250.2	303.26	-582.33	1498.1	494.13	-624.37	1519	163.46	-567.8	1827.3	327.97	-504.08	1002.8	451.57	-514.82	992.21	184.3	-748	1039.7	371.18	-755.76	1034.7	268.72	-569.4	955.29	537.56	-629.57	938.59	112.6	-591	1096.2	524.25	-629.89	1076	118.36	-764.34	1000.4	320.36	-487.1	655.86	503.69	-399.64	611.09	469.26	-457.81	574.17	477.53	-425.66	694.51	496.3	-417.38	521.47	466.67	-423.93	529.41	325.34	-480.2	366.28	487.25	-432.84	279.77	436.75	-492.57	297.17	475.16	-422.92	350.26	456.75	-525.19	102.01	432.26	-495.54	105.86	338.14	-596.58	71.85	373.46	-580.67	42.16	344.94	-587.41	41.574	409.28	-397.68	36.362	471.07	-362.51	39.717	346.36	-301.19	57.583	403.22	-655.53	657.93	125.79	-572.95	590.14	92.713	-638.51	568	132.96	-595.35	683.13	91.715	-598.4	493.15	97.602	-534.28	472.74	234.48	-722.5	444.95	94.693	-753.8	340	115.25	-784.15	396.41	105.18	-693.69	386.96	102.01	-955.96	279.24	154.03	-917.52	255.78	243.83	-1013	317	214.57	-1022.9	293.2	248.91	-1036.2	298.06	188.62	-946.88	120.02	121.49	-903.34	95.923	235.87	-868.86	54.254	173.87	-686.98	1565.5	338.78	-769.92	1251.2	348.32
154	0.6375	-462.43	1251.4	303.17	-576.59	1499.2	494.51	-619.28	1520.5	163.95	-562.22	1828.6	328.92	-498.6	1003.8	451.59	-509.78	993.64	184.28	-742.62	1041	371.64	-750.48	1036	269.18	-564.12	956.22	537.66	-624.39	939.97	112.73	-585.49	1097.4	524.53	-625.26	1077.2	118.55	-759.04	1001.7	320.85	-484	656.16	503.84	-396.92	610.72	469.36	-455.37	574.24	477.73	-422.27	694.35	496.39	-415.49	521.14	466.87	-422.03	529.08	325.58	-479.13	366.2	487.44	-432.11	279.52	436.93	-491.78	297.13	475.32	-421.91	349.97	456.97	-525.14	102.04	432.34	-495.57	105.96	338.21	-596.59	71.897	373.52	-580.68	42.23	344.99	-587.4	41.585	409.32	-397.68	36.347	471.14	-362.53	39.798	346.41	-301.21	57.608	403.29	-646.38	658.76	125.78	-563.28	591.88	92.469	-628.39	569.09	133.13	-586.63	684.58	91.492	-587.61	495.03	97.451	-523.37	474.92	234.63	-711.51	447.33	95.015	-743.18	342.46	115.36	-773.21	398.88	105.52	-682.81	389.26	102.11	-945.23	282.35	154.68	-906.48	258.41	244.28	-1002	319.85	215.6	-1011.8	295.91	249.87	-1025.4	301.11	189.62	-936.43	123.26	121.25	-892.36	98.365	235.26	-858.36	56.724	172.91	-681.47	1566.8	339.42	-764.49	1252.6	348.9
155	0.64167	-457.16	1252.8	303.04	-570.87	1500.4	494.85	-614.19	1522	164.41	-556.65	1829.9	329.82	-493.15	1004.8	451.6	-504.76	995.13	184.25	-737.26	1042.5	372.09	-745.19	1037.3	269.63	-558.9	957.15	537.75	-619.22	941.46	112.85	-579.96	1098.6	524.77	-620.63	1078.5	118.73	-753.75	1003.1	321.33	-480.99	656.49	503.98	-394.3	610.35	469.46	-453.04	574.35	477.92	-418.98	694.21	496.47	-413.72	520.84	467.05	-420.24	528.77	325.8	-478.16	366.14	487.62	-431.43	279.3	437.11	-491.05	297.11	475.46	-420.98	349.71	457.17	-525.09	102.08	432.41	-495.6	106.06	338.29	-596.59	71.952	373.58	-580.68	42.304	345.03	-587.4	41.603	409.37	-397.68	36.328	471.2	-362.54	39.873	346.47	-301.23	57.631	403.36	-637.23	659.72	125.75	-553.63	593.75	92.254	-618.3	570.32	133.27	-577.94	686.16	91.274	-576.9	497.03	97.34	-512.55	477.25	234.79	-700.6	449.72	95.384	-732.54	344.9	115.47	-762.28	401.26	105.89	-671.92	391.59	102.22	-934.36	285.11	155.32	-895.28	260.81	244.71	-990.9	322.27	216.58	-1000.6	298.18	250.78	-1014.4	303.68	190.56	-925.55	126.19	121.08	-880.97	100.66	234.76	-847.33	59.153	172.08	-675.97	1568.2	340.02	-759.11	1254	349.46
